{
  "accessors": [
    {
      "bufferView": 2,
      "componentType": 5126,
      "count": 85,
      "max": [
        25.000017166137695,
        25.000019073486328,
        5.000000953674316
      ],
      "min": [
        -25.000024795532227,
        -25.000015258789063,
        0.0
      ],
      "type": "VEC3"
    },
    {
      "bufferView": 2,
      "byteOffset": 1020,
      "componentType": 5126,
      "count": 85,
      "max": [
        1.0,
        1.0,
        1.0
      ],
      "min": [
        -1.0,
        -1.0,
        -7.629417950738571e-07
      ],
      "type": "VEC3"
    },
    {
      "bufferView": 3,
      "componentType": 5126,
      "count": 85,
      "max": [
        1.0,
        1.0,
        2.575578368201742e-13,
        1.0
      ],
      "min": [
        -3.3758394692995353e-06,
        -1.0,
        -1.0,
        1.0
      ],
      "type": "VEC4"
    },
    {
      "bufferView": 1,
      "componentType": 5126,
      "count": 85,
      "max": [
        0.999500036239624,
        0.999500036239624
      ],
      "min": [
        0.0005000000237487257,
        0.0005000000237487257
      ],
      "type": "VEC2"
    },
    {
      "bufferView": 0,
      "componentType": 5125,
      "count": 186,
      "type": "SCALAR"
    },
    {
      "bufferView": 2,
      "byteOffset": 2040,
      "componentType": 5126,
      "count": 796,
      "max": [
        25.600000381469727,
        25.599998474121094,
        8.000000953674316
      ],
      "min": [
        -25.600000381469727,
        -25.599998474121094,
        9.5367431640625e-07
      ],
      "type": "VEC3"
    },
    {
      "bufferView": 2,
      "byteOffset": 11592,
      "componentType": 5126,
      "count": 796,
      "max": [
        1.0,
        1.0,
        0.0
      ],
      "min": [
        -1.0,
        -1.0,
        -1.0
      ],
      "type": "VEC3"
    },
    {
      "bufferView": 1,
      "byteOffset": 680,
      "componentType": 5126,
      "count": 796,
      "max": [
        0.9984485507011414,
        0.9901453256607056
      ],
      "min": [
        0.0009818822145462036,
        0.0009818673133850098
      ],
      "type": "VEC2"
    },
    {
      "bufferView": 0,
      "byteOffset": 744,
      "componentType": 5125,
      "count": 1194,
      "type": "SCALAR"
    },
    {
      "bufferView": 2,
      "byteOffset": 21144,
      "componentType": 5126,
      "count": 17534,
      "max": [
        24.399995803833008,
        24.43288230895996,
        8.000001907348633
      ],
      "min": [
        -24.40000343322754,
        -24.39999771118164,
        3.3497509956359863
      ],
      "type": "VEC3"
    },
    {
      "bufferView": 2,
      "byteOffset": 231552,
      "componentType": 5126,
      "count": 17534,
      "max": [
        1.0,
        1.0,
        1.0
      ],
      "min": [
        -1.0,
        -1.0,
        -1.0
      ],
      "type": "VEC3"
    },
    {
      "bufferView": 1,
      "byteOffset": 7048,
      "componentType": 5126,
      "count": 17534,
      "max": [
        0.9989053606987,
        0.9978993535041809
      ],
      "min": [
        0.0009767641313374043,
        0.0009820014238357544
      ],
      "type": "VEC2"
    },
    {
      "bufferView": 1,
      "byteOffset": 147320,
      "componentType": 5126,
      "count": 17534,
      "max": [
        0.9695950150489807,
        0.999500036239624
      ],
      "min": [
        0.0005000000237487257,
        0.0005000000237487257
      ],
      "type": "VEC2"
    },
    {
      "bufferView": 0,
      "byteOffset": 5520,
      "componentType": 5125,
      "count": 42054,
      "type": "SCALAR"
    },
    {
      "bufferView": 2,
      "byteOffset": 441960,
      "componentType": 5126,
      "count": 492,
      "max": [
        24.142507553100586,
        22.509248733520508,
        1.100000023841858
      ],
      "min": [
        -19.146875381469727,
        -9.46027660369873,
        -3.725290298461914e-09
      ],
      "type": "VEC3"
    },
    {
      "bufferView": 2,
      "byteOffset": 447864,
      "componentType": 5126,
      "count": 492,
      "max": [
        1.0,
        1.0,
        1.0
      ],
      "min": [
        -1.0,
        -1.0,
        -1.0
      ],
      "type": "VEC3"
    },
    {
      "bufferView": 1,
      "byteOffset": 287592,
      "componentType": 5126,
      "count": 492,
      "max": [
        0.9979629516601563,
        0.9931106567382813
      ],
      "min": [
        0.0010223388671875,
        0.0010206103324890137
      ],
      "type": "VEC2"
    },
    {
      "bufferView": 0,
      "byteOffset": 173736,
      "componentType": 5125,
      "count": 858,
      "type": "SCALAR"
    },
    {
      "bufferView": 2,
      "byteOffset": 453768,
      "componentType": 5126,
      "count": 368,
      "max": [
        12.650008201599121,
        23.15903091430664,
        3.500845193862915
      ],
      "min": [
        -12.650009155273438,
        -22.003360748291016,
        1.499157190322876
      ],
      "type": "VEC3"
    },
    {
      "bufferView": 2,
      "byteOffset": 458184,
      "componentType": 5126,
      "count": 368,
      "max": [
        1.0,
        1.0,
        1.0
      ],
      "min": [
        -1.0,
        -1.0,
        -1.0
      ],
      "type": "VEC3"
    },
    {
      "bufferView": 1,
      "byteOffset": 291528,
      "componentType": 5126,
      "count": 368,
      "max": [
        0.997492253780365,
        0.8899748921394348
      ],
      "min": [
        0.0009836637182161212,
        0.0010317274136468768
      ],
      "type": "VEC2"
    },
    {
      "bufferView": 0,
      "byteOffset": 177168,
      "componentType": 5125,
      "count": 552,
      "type": "SCALAR"
    },
    {
      "bufferView": 2,
      "byteOffset": 462600,
      "componentType": 5126,
      "count": 435,
      "max": [
        -0.600001335144043,
        -13.100000381469727,
        8.000000953674316
      ],
      "min": [
        -11.900001525878906,
        -24.999500274658203,
        9.5367431640625e-07
      ],
      "type": "VEC3"
    },
    {
      "bufferView": 2,
      "byteOffset": 467820,
      "componentType": 5126,
      "count": 435,
      "max": [
        1.0,
        1.0,
        1.0
      ],
      "min": [
        -1.0,
        -1.0,
        -1.0
      ],
      "type": "VEC3"
    },
    {
      "bufferView": 1,
      "byteOffset": 294472,
      "componentType": 5126,
      "count": 435,
      "max": [
        0.9984038472175598,
        0.9920562505722046
      ],
      "min": [
        0.0010523460805416107,
        0.0010101571679115295
      ],
      "type": "VEC2"
    },
    {
      "bufferView": 0,
      "byteOffset": 179376,
      "componentType": 5125,
      "count": 960,
      "type": "SCALAR"
    },
    {
      "bufferView": 2,
      "byteOffset": 473040,
      "componentType": 5126,
      "count": 16,
      "max": [
        -0.7000007629394531,
        -24.89950180053711,
        4.850001335144043
      ],
      "min": [
        -11.80000114440918,
        -24.89950180053711,
        0.15000128746032715
      ],
      "type": "VEC3"
    },
    {
      "bufferView": 2,
      "byteOffset": 473232,
      "componentType": 5126,
      "count": 16,
      "max": [
        0.0,
        1.0,
        0.0
      ],
      "min": [
        0.0,
        1.0,
        0.0
      ],
      "type": "VEC3"
    },
    {
      "bufferView": 1,
      "byteOffset": 297952,
      "componentType": 5126,
      "count": 16,
      "max": [
        1.0,
        1.0
      ],
      "min": [
        1.1920928955078125e-07,
        -5.960464477539063e-08
      ],
      "type": "VEC2"
    },
    {
      "bufferView": 0,
      "byteOffset": 183216,
      "componentType": 5125,
      "count": 24,
      "type": "SCALAR"
    },
    {
      "bufferView": 2,
      "byteOffset": 473424,
      "componentType": 5126,
      "count": 4,
      "max": [
        -0.1257326751947403,
        -13.276632308959961,
        4.818430423736572
      ],
      "min": [
        -0.12573395669460297,
        -16.456193923950195,
        0.18157052993774414
      ],
      "type": "VEC3"
    },
    {
      "bufferView": 2,
      "byteOffset": 473472,
      "componentType": 5126,
      "count": 4,
      "max": [
        -1.0,
        1.6402910318902286e-07,
        -1.6389522272675094e-07
      ],
      "min": [
        -1.0,
        1.6402910318902286e-07,
        -1.6389522272675094e-07
      ],
      "type": "VEC3"
    },
    {
      "bufferView": 1,
      "byteOffset": 298080,
      "componentType": 5126,
      "count": 4,
      "max": [
        1.0,
        1.0
      ],
      "min": [
        0.0,
        0.0
      ],
      "type": "VEC2"
    },
    {
      "bufferView": 1,
      "byteOffset": 298112,
      "componentType": 5126,
      "count": 4,
      "max": [
        1.0,
        1.0
      ],
      "min": [
        0.0,
        0.0
      ],
      "type": "VEC2"
    },
    {
      "bufferView": 0,
      "byteOffset": 183312,
      "componentType": 5125,
      "count": 6,
      "type": "SCALAR"
    }
  ],
  "asset": {
    "extras": {
      "author": "Marcin Lubecki (https://sketchfab.com/Lubus)",
      "license": "SKETCHFAB Standard (https://sketchfab.com/licenses)",
      "source": "https://sketchfab.com/3d-models/vr-art-gallery-2020-l-baked-max-scene-77b8c81fd81f43e69e9abf9beceb4d2b",
      "title": "VR Art Gallery 2020 L Baked + Max Scene"
    },
    "generator": "Sketchfab-12.68.0",
    "version": "2.0"
  },
  "bufferViews": [
    {
      "buffer": 0,
      "byteLength": 183336,
      "name": "floatBufferViews",
      "target": 34963
    },
    {
      "buffer": 0,
      "byteLength": 298144,
      "byteOffset": 183336,
      "byteStride": 8,
      "name": "floatBufferViews",
      "target": 34962
    },
    {
      "buffer": 0,
      "byteLength": 473520,
      "byteOffset": 481480,
      "byteStride": 12,
      "name": "floatBufferViews",
      "target": 34962
    },
    {
      "buffer": 0,
      "byteLength": 1360,
      "byteOffset": 955000,
      "byteStride": 16,
      "name": "floatBufferViews",
      "target": 34962
    }
  ],
  "buffers": [
    {
      "byteLength": 956360,
      "uri": "scene.bin"
    }
  ],
  "images": [
    {
      "uri": "textures/floor_baseColor.jpeg"
    },
    {
      "uri": "textures/floor_metallicRoughness.png"
    },
    {
      "uri": "textures/floor_normal.png"
    },
    {
      "uri": "textures/walls_baseColor.jpeg"
    },
    {
      "uri": "textures/ceiling_baseColor.jpeg"
    },
    {
      "uri": "textures/post_baseColor.jpeg"
    },
    {
      "uri": "textures/paintings_baseColor.jpeg"
    },
    {
      "uri": "textures/windows_baseColor.jpeg"
    },
    {
      "uri": "textures/glass_baseColor.png"
    },
    {
      "uri": "textures/about_baseColor.png"
    }
  ],
  "materials": [
    {
      "name": "floor",
      "normalTexture": {
        "index": 2
      },
      "pbrMetallicRoughness": {
        "baseColorTexture": {
          "index": 0
        },
        "metallicFactor": 0.0685919535,
        "metallicRoughnessTexture": {
          "index": 1
        },
        "roughnessFactor": 0.348279919
      }
    },
    {
      "name": "walls",
      "pbrMetallicRoughness": {
        "baseColorTexture": {
          "index": 3
        },
        "metallicFactor": 0.0,
        "roughnessFactor": 0.8929713596
      }
    },
    {
      "name": "ceiling",
      "pbrMetallicRoughness": {
        "baseColorTexture": {
          "index": 4
        },
        "metallicFactor": 0.0,
        "roughnessFactor": 0.8929713596
      }
    },
    {
      "doubleSided": true,
      "name": "post",
      "pbrMetallicRoughness": {
        "baseColorTexture": {
          "index": 5
        },
        "metallicFactor": 0.0,
        "roughnessFactor": 0.8929713596
      }
    },
    {
      "doubleSided": true,
      "name": "paintings",
      "pbrMetallicRoughness": {
        "baseColorTexture": {
          "index": 6
        },
        "metallicFactor": 0.0,
        "roughnessFactor": 0.8929713596
      }
    },
    {
      "name": "windows",
      "pbrMetallicRoughness": {
        "baseColorTexture": {
          "index": 7
        },
        "metallicFactor": 0.0,
        "roughnessFactor": 0.8929713596
      }
    },
    {
      "alphaMode": "BLEND",
      "doubleSided": true,
      "name": "glass",
      "pbrMetallicRoughness": {
        "baseColorFactor": [
          1.0,
          1.0,
          1.0,
          0.2996385337
        ],
        "baseColorTexture": {
          "index": 8
        },
        "metallicFactor": 0.0,
        "roughnessFactor": 0.8929713596
      }
    },
    {
      "alphaMode": "BLEND",
      "doubleSided": true,
      "name": "about",
      "pbrMetallicRoughness": {
        "baseColorFactor": [
          0.0,
          0.0,
          0.0,
          1.0
        ],
        "baseColorTexture": {
          "index": 9
        },
        "metallicFactor": 0.0,
        "roughnessFactor": 0.8929713596
      }
    }
  ],
  "meshes": [
    {
      "name": "floor_floor_0",
      "primitives": [
        {
          "attributes": {
            "NORMAL": 1,
            "POSITION": 0,
            "TANGENT": 2,
            "TEXCOORD_0": 3
          },
          "indices": 4,
          "material": 0,
          "mode": 4
        }
      ]
    },
    {
      "name": "walls_walls_0",
      "primitives": [
        {
          "attributes": {
            "NORMAL": 6,
            "POSITION": 5,
            "TEXCOORD_0": 7
          },
          "indices": 8,
          "material": 1,
          "mode": 4
        }
      ]
    },
    {
      "name": "ceiling_ceiling_0",
      "primitives": [
        {
          "attributes": {
            "NORMAL": 10,
            "POSITION": 9,
            "TEXCOORD_0": 11,
            "TEXCOORD_1": 12
          },
          "indices": 13,
          "material": 2,
          "mode": 4
        }
      ]
    },
    {
      "name": "post_post_0",
      "primitives": [
        {
          "attributes": {
            "NORMAL": 15,
            "POSITION": 14,
            "TEXCOORD_0": 16
          },
          "indices": 17,
          "material": 3,
          "mode": 4
        }
      ]
    },
    {
      "name": "paintings_paintings_0",
      "primitives": [
        {
          "attributes": {
            "NORMAL": 19,
            "POSITION": 18,
            "TEXCOORD_0": 20
          },
          "indices": 21,
          "material": 4,
          "mode": 4
        }
      ]
    },
    {
      "name": "windows_windows_0",
      "primitives": [
        {
          "attributes": {
            "NORMAL": 23,
            "POSITION": 22,
            "TEXCOORD_0": 24
          },
          "indices": 25,
          "material": 5,
          "mode": 4
        }
      ]
    },
    {
      "name": "glass_glass_0",
      "primitives": [
        {
          "attributes": {
            "NORMAL": 27,
            "POSITION": 26,
            "TEXCOORD_0": 28
          },
          "indices": 29,
          "material": 6,
          "mode": 4
        }
      ]
    },
    {
      "name": "about_about_0",
      "primitives": [
        {
          "attributes": {
            "NORMAL": 31,
            "POSITION": 30,
            "TEXCOORD_0": 32,
            "TEXCOORD_1": 33
          },
          "indices": 34,
          "material": 7,
          "mode": 4
        }
      ]
    }
  ],
  "nodes": [
    {
      "children": [
        1
      ],
      "matrix": [
        1.0,
        0.0,
        0.0,
        0.0,
        0.0,
        2.220446049250313e-16,
        -1.0,
        0.0,
        0.0,
        1.0,
        2.220446049250313e-16,
        0.0,
        0.0,
        0.0,
        0.0,
        1.0
      ],
      "name": "Sketchfab_model"
    },
    {
      "children": [
        2
      ],
      "matrix": [
        1.0,
        0.0,
        0.0,
        0.0,
        0.0,
        0.0,
        1.0,
        0.0,
        0.0,
        -1.0,
        0.0,
        0.0,
        0.0,
        0.0,
        0.0,
        1.0
      ],
      "name": "VR Art Gallery 2020 L _ Baked + Max Scene.fbx"
    },
    {
      "children": [
        3,
        5,
        7,
        9,
        11,
        13,
        15,
        17
      ],
      "name": "RootNode"
    },
    {
      "children": [
        4
      ],
      "matrix": [
        1.0,
        0.0,
        0.0,
        0.0,
        0.0,
        2.220446049250313e-16,
        -1.0,
        0.0,
        0.0,
        1.0,
        2.220446049250313e-16,
        0.0,
        0.0,
        0.0,
        0.0,
        1.0
      ],
      "name": "floor"
    },
    {
      "mesh": 0,
      "name": "floor_floor_0"
    },
    {
      "children": [
        6
      ],
      "matrix": [
        1.0,
        0.0,
        0.0,
        0.0,
        0.0,
        2.220446049250313e-16,
        -1.0,
        0.0,
        0.0,
        1.0,
        2.220446049250313e-16,
        0.0,
        0.0,
        0.0,
        0.0,
        1.0
      ],
      "name": "walls"
    },
    {
      "mesh": 1,
      "name": "walls_walls_0"
    },
    {
      "children": [
        8
      ],
      "matrix": [
        1.0,
        0.0,
        0.0,
        0.0,
        0.0,
        2.220446049250313e-16,
        -1.0,
        0.0,
        0.0,
        1.0,
        2.220446049250313e-16,
        0.0,
        0.0,
        0.0,
        0.0,
        1.0
      ],
      "name": "ceiling"
    },
    {
      "mesh": 2,
      "name": "ceiling_ceiling_0"
    },
    {
      "children": [
        10
      ],
      "matrix": [
        1.0,
        0.0,
        0.0,
        0.0,
        0.0,
        2.220446049250313e-16,
        -1.0,
        0.0,
        0.0,
        1.0,
        2.220446049250313e-16,
        0.0,
        0.0,
        0.0,
        0.0,
        1.0
      ],
      "name": "post"
    },
    {
      "mesh": 3,
      "name": "post_post_0"
    },
    {
      "children": [
        12
      ],
      "matrix": [
        1.0,
        0.0,
        0.0,
        0.0,
        0.0,
        2.220446049250313e-16,
        -1.0,
        0.0,
        0.0,
        1.0,
        2.220446049250313e-16,
        0.0,
        0.0,
        0.0,
        0.0,
        1.0
      ],
      "name": "paintings"
    },
    {
      "mesh": 4,
      "name": "paintings_paintings_0"
    },
    {
      "children": [
        14
      ],
      "matrix": [
        1.0,
        0.0,
        0.0,
        0.0,
        0.0,
        2.220446049250313e-16,
        -1.0,
        0.0,
        0.0,
        1.0,
        2.220446049250313e-16,
        0.0,
        0.0,
        0.0,
        0.0,
        1.0
      ],
      "name": "windows"
    },
    {
      "mesh": 5,
      "name": "windows_windows_0"
    },
    {
      "children": [
        16
      ],
      "matrix": [
        1.0,
        0.0,
        0.0,
        0.0,
        0.0,
        2.220446049250313e-16,
        -1.0,
        0.0,
        0.0,
        1.0,
        2.220446049250313e-16,
        0.0,
        0.0,
        0.0,
        0.0,
        1.0
      ],
      "name": "glass"
    },
    {
      "mesh": 6,
      "name": "glass_glass_0"
    },
    {
      "children": [
        18
      ],
      "matrix": [
        1.0,
        0.0,
        0.0,
        0.0,
        0.0,
        2.220446049250313e-16,
        -1.0,
        0.0,
        0.0,
        1.0,
        2.220446049250313e-16,
        0.0,
        0.0,
        0.0,
        0.0,
        1.0
      ],
      "name": "about"
    },
    {
      "mesh": 7,
      "name": "about_about_0"
    }
  ],
  "samplers": [
    {
      "magFilter": 9729,
      "minFilter": 9987,
      "wrapS": 10497,
      "wrapT": 10497
    }
  ],
  "scene": 0,
  "scenes": [
    {
      "name": "Sketchfab_Scene",
      "nodes": [
        0
      ]
    }
  ],
  "textures": [
    {
      "sampler": 0,
      "source": 0
    },
    {
      "sampler": 0,
      "source": 1
    },
    {
      "sampler": 0,
      "source": 2
    },
    {
      "sampler": 0,
      "source": 3
    },
    {
      "sampler": 0,
      "source": 4
    },
    {
      "sampler": 0,
      "source": 5
    },
    {
      "sampler": 0,
      "source": 6
    },
    {
      "sampler": 0,
      "source": 7
    },
    {
      "sampler": 0,
      "source": 8
    },
    {
      "sampler": 0,
      "source": 9
    }
  ]
}
